<?xml version="1.0" standalone="no"?><!DOCTYPE svg PUBLIC "-//W3C//DTD SVG 1.1//EN" "http://www.w3.org/Graphics/SVG/1.1/DTD/svg11.dtd"><svg t="1540802794923" class="icon" style="" viewBox="0 0 1024 1024" version="1.1" xmlns="http://www.w3.org/2000/svg" p-id="1229" xmlns:xlink="http://www.w3.org/1999/xlink" width="16" height="16"><defs><style type="text/css"></style></defs><path d="M867.3 342.8L539.5 670.7V79.4c0-15.2-12.3-27.5-27.5-27.5s-27.5 12.3-27.5 27.5v591.3L156.7 342.8c-5.4-5.4-12.4-8-19.4-8-7 0-14.1 2.7-19.4 8-10.7 10.7-10.7 28.1 0 38.8l374.7 374.7c10.7 10.7 28.1 10.7 38.8 0l374.7-374.7c10.7-10.7 10.7-28.1 0-38.8-10.7-10.7-28.1-10.7-38.8 0z m129.2 574.4h-969C12.3 917.2 0 929.5 0 944.6c0 15.2 12.3 27.5 27.5 27.5h969.1c15.2 0 27.5-12.3 27.5-27.5-0.1-15.1-12.4-27.4-27.6-27.4z" fill="#4C87FF" p-id="1230"></path></svg>